<?xml version="1.0" encoding="utf-8"?>
<!-- Generator: Adobe Illustrator 21.0.2, SVG Export Plug-In . SVG Version: 6.00 Build 0)  -->
<svg version="1.1" id="Layer_1" xmlns="http://www.w3.org/2000/svg" xmlns:xlink="http://www.w3.org/1999/xlink" x="0px" y="0px"
	 viewBox="0 0 230.7 235.3" style="enable-background:new 0 0 230.7 235.3;" xml:space="preserve">
<style type="text/css">
	.st0{fill:#D16428;}
	.st1{fill:#D89E28;}
	.st2{fill:#E9B932;stroke:#B25326;stroke-width:1.168;stroke-miterlimit:10;}
	.st3{fill:#E9B932;stroke:#B25326;stroke-width:1.2048;stroke-miterlimit:10;}
</style>
<g>
	<g>
		<polygon class="st0" points="25.7,42.8 64.1,49.7 38.9,79.6 		"/>
		<path class="st1" d="M26.4,43.5l18.4,3.3l18.4,3.3l-12,14.3l-12,14.3l-6.3-17.5L26.4,43.5 M24.9,42.2l6.9,19.2l6.9,19.2L51.9,65
			l13.2-15.6L45,45.8L24.9,42.2L24.9,42.2z"/>
	</g>
	<g>
		<polygon class="st0" points="72.6,10 102.7,34.8 66.1,48.5 		"/>
		<path class="st1" d="M72.9,10.9l14.4,11.9l14.4,11.9l-17.5,6.5l-17.5,6.5l3.1-18.4L72.9,10.9 M72.2,9l-3.4,20.1l-3.4,20.1
			l19.1-7.1l19.1-7.1L87.9,22L72.2,9L72.2,9z"/>
	</g>
	<g>
		<polygon class="st0" points="101.5,33.1 123.8,1 140.4,36.3 		"/>
		<path class="st1" d="M123.7,2l8,16.9l8,16.9l-18.6-1.5l-18.6-1.5l10.6-15.3L123.7,2 M123.9,0l-11.6,16.7l-11.6,16.7l20.3,1.7
			l20.3,1.7l-8.7-18.4L123.9,0L123.9,0z"/>
	</g>
	<g>
		<polygon class="st0" points="138.1,34.4 171.4,13.9 172.4,53 		"/>
		<path class="st1" d="M170.9,14.8l0.5,18.6l0.5,18.6l-16.4-8.9l-16.4-8.9l15.9-9.8L170.9,14.8 M171.8,13.1l-17.4,10.7L137,34.5
			l17.9,9.7l17.9,9.7l-0.5-20.4L171.8,13.1L171.8,13.1z"/>
	</g>
	<g>
		<polygon class="st0" points="169.8,52 208.4,46.2 194.2,82.5 		"/>
		<path class="st1" d="M207.7,46.8l-6.8,17.4l-6.8,17.4L182.5,67l-11.6-14.6l18.4-2.8L207.7,46.8 M209.2,45.6l-20.2,3l-20.2,3
			l12.7,15.9l12.7,15.9l7.4-19L209.2,45.6L209.2,45.6z"/>
	</g>
	<g>
		<polygon class="st0" points="192.4,83.3 229.7,94.9 201,121.4 		"/>
		<path class="st1" d="M193.1,84l17.8,5.5l17.8,5.5L215,107.7l-13.7,12.7l-4.1-18.2L193.1,84 M191.7,82.6l4.5,19.9l4.5,19.9l15-13.8
			l15-13.8l-19.5-6.1L191.7,82.6L191.7,82.6z"/>
	</g>
	<g>
		<polygon class="st0" points="200,123.8 226.3,152.6 188.1,161 		"/>
		<path class="st1" d="M200.2,124.8l12.6,13.8l12.6,13.8l-18.2,4l-18.2,4l5.7-17.8L200.2,124.8 M199.8,122.8l-6.2,19.4l-6.2,19.4
			l19.9-4.4l19.9-4.4l-13.7-14.9L199.8,122.8L199.8,122.8z"/>
	</g>
	<g>
		<polygon class="st0" points="161.5,187.1 189.2,159.7 199.1,197.4 		"/>
		<path class="st1" d="M189,160.6l4.7,18l4.7,18l-18-4.9l-18-4.9l13.3-13.1L189,160.6 M189.5,158.7L175,173l-14.5,14.3l19.7,5.4
			l19.7,5.4l-5.2-19.7L189.5,158.7L189.5,158.7z"/>
	</g>
	<g>
		<polygon class="st0" points="127.5,201.2 162.9,184.8 159.4,223.7 		"/>
		<path class="st1" d="M162.3,185.6l-1.6,18.6l-1.6,18.6l-15.3-10.7l-15.3-10.7l16.9-7.9L162.3,185.6 M163.5,184l-18.5,8.6
			l-18.5,8.6l16.7,11.7l16.7,11.7l1.8-20.3L163.5,184L163.5,184z"/>
	</g>
	<g>
		<polygon class="st0" points="90.5,200.9 129.5,200 110.8,234.2 		"/>
		<path class="st1" d="M128.7,200.5l-9,16.4l-9,16.4l-9.7-15.9l-9.7-15.9l18.7-0.4L128.7,200.5 M130.4,199.5L110,200l-20.4,0.5
			l10.6,17.4l10.6,17.4l9.8-17.9L130.4,199.5L130.4,199.5z"/>
	</g>
	<g>
		<polygon class="st0" points="60.9,183.4 95.6,201.2 62.8,222.4 		"/>
		<path class="st1" d="M61.4,184.2l16.6,8.5l16.6,8.5l-15.7,10.2l-15.7,10.1l-0.9-18.6L61.4,184.2 M60.3,182.6l1,20.4l1,20.4
			l17.1-11.1l17.1-11.1l-18.1-9.3L60.3,182.6L60.3,182.6z"/>
	</g>
	<g>
		<polygon class="st0" points="39.2,155.6 66.3,183.7 28.4,193.2 		"/>
		<path class="st1" d="M39.4,156.6l13,13.4l13,13.4l-18.1,4.5l-18.1,4.5l5.1-17.9L39.4,156.6 M38.9,154.6l-5.6,19.6l-5.6,19.6
			l19.8-4.9l19.8-4.9l-14.2-14.7L38.9,154.6L38.9,154.6z"/>
	</g>
	<g>
		<polygon class="st0" points="4.3,147.9 32,120.3 42,158 		"/>
		<path class="st1" d="M31.7,121.3l4.8,18l4.8,18l-18-4.9l-18-4.9l13.2-13.2L31.7,121.3 M32.2,119.3l-14.4,14.4L3.4,148.1l19.7,5.3
			l19.7,5.3L37.5,139L32.2,119.3L32.2,119.3z"/>
	</g>
	<g>
		<polygon class="st0" points="1,94.8 37.5,81.1 31.1,119.7 		"/>
		<path class="st1" d="M36.9,81.9l-3.1,18.4l-3.1,18.4l-14.3-11.8L2,95l17.5-6.5L36.9,81.9 M38.2,80.4l-19.1,7.2L0,94.8l15.7,13
			l15.7,13l3.4-20.1L38.2,80.4L38.2,80.4z"/>
	</g>
</g>
<g>
	<path class="st0" d="M115.4,202.4c-46.9,0-85-38.1-85-85s38.1-85,85-85s85,38.1,85,85S162.3,202.4,115.4,202.4z"/>
	<path class="st1" d="M115.4,32.9c46.6,0,84.5,37.9,84.5,84.5s-37.9,84.5-84.5,84.5S30.9,164,30.9,117.4S68.8,32.9,115.4,32.9
		 M115.4,31.9c-47.2,0-85.5,38.3-85.5,85.5s38.3,85.5,85.5,85.5s85.5-38.3,85.5-85.5S162.6,31.9,115.4,31.9L115.4,31.9z"/>
</g>
<path class="st2" d="M59,79.7c0,0,21.9,31.4,46.9,26.2c-24,6.5-49-2.6-49-2.6L59,79.7z"/>
<path class="st3" d="M169.4,76.9c0,0-21.2,34.5-45.5,28.7c23.2,7.2,47.5-2.9,47.5-2.9L169.4,76.9z"/>
<path class="st2" d="M63.3,133.6l9.1,12.8l2.3-6.8l8.7,10.8l2.7-6.1l5.3,8.1l6.1-5.4l5.9,7.4l6.5-6l5.5,6l5.9-6.4l3.1,6.4l7.6-7.7
	l7.4,5.7l3.3-8.4l7.7,5.4l2.4-8.4l5.6,6.4l7.5-12.4l5.5-3.6c0,0-5.1,17-10.6,21c-5.4,4-7.4-2-7.4-2l-1.9,11.4l-7.1-7.4l1.4,13.1
	l-8.4-10.1l0.3,16.1l-9.3-12.1l-1.7,18.5l-8.3-15.5l-3.8,19.8l-8.2-18.8l-7.9,17.2l-1.1-19.2l-13,9.1l1-18.1l-8,8.7v-11.7
	c0,0-1.4,4-6.7,1C67.4,149.4,63.2,133.8,63.3,133.6z"/>
</svg>
